<svg width="151.07598194181975" height="101.365625" viewBox="0 0 200 147.96796914333697" xmlns="http://www.w3.org/2000/svg"><defs id="SvgjsDefs2800"></defs><g id="SvgjsG2801" featurekey="symbolFeature-0" transform="matrix(1.110997270545894,0,0,1.110997270545894,44.446038212357486,-25.652439762830664)" fill="#111111"><title xmlns="http://www.w3.org/2000/svg">Datascience</title><path xmlns="http://www.w3.org/2000/svg" d="M86,50.94V41.5a2.2,2.2,0,0,0,0-.36c0-3.25-5.67-5-11-5-5.11,0-10.51,1.61-11,4.6a1.06,1.06,0,0,0-.08.4v6c-4.78.2-9.5,1.79-9.92,4.58a1.06,1.06,0,0,0-.08.4V71.86c0,3.25,5.67,5,11,5s11-1.75,11-5v-6c5-.2,10-1.93,10-5V51.5a2.2,2.2,0,0,0,0-.36A1.42,1.42,0,0,0,86,50.94ZM56,55.07c2.12,1.36,5.64,2.07,9,2.07s6.83-.69,9-2v7.25c-.4,1.2-3.8,2.77-9,2.77-5.49,0-9-1.78-9-3a1.42,1.42,0,0,0,0-.2ZM76,52.5a2.2,2.2,0,0,0,0-.36c0-3-5-4.79-10-5V44.07c2.12,1.36,5.64,2.07,9,2.07s6.83-.69,9-2v7.25c-.37,1.13-3.38,2.57-8,2.75ZM75,38.14c5.34,0,8.79,1.67,9,2.89,0,0,0,.07,0,.11v.23c-.4,1.2-3.8,2.77-9,2.77-5.49,0-9-1.78-9-3S69.51,38.14,75,38.14Zm-10,11c5.34,0,8.79,1.67,9,2.89,0,0,0,.07,0,.11v.23c-.4,1.2-3.8,2.77-9,2.77-5.49,0-9-1.78-9-3S59.51,49.14,65,49.14Zm0,25.72c-5.49,0-9-1.78-9-3V65.07c2.12,1.36,5.64,2.07,9,2.07s6.83-.69,9-2v6.74C74,73.08,70.45,74.86,65,74.86Zm11-11V62.5a2.2,2.2,0,0,0,0-.36,1.42,1.42,0,0,0,0-.2V56.12a17.33,17.33,0,0,0,8-2v6.74C84,62,80.88,63.64,76,63.84ZM46.65,58.17l16.42-32,3.61,6a1,1,0,1,0,1.71-1l-4.53-7.59a1,1,0,0,0-.89-.49,1,1,0,0,0-.86.54L44.88,57.24a4.32,4.32,0,0,0-.88-.1,3.86,3.86,0,0,0-.84.09l-7.9-15.8a4,4,0,1,0-4.82-.25l-8,12H15a1,1,0,0,0,0,2h8a1,1,0,0,0,.83-.45l8.42-12.63a3.74,3.74,0,0,0,.75.08c.12,0,.24,0,.36,0l8,16a4,4,0,1,0,5.27,0ZM33,36.14a2,2,0,1,1-2,2A2,2,0,0,1,33,36.14Zm11,27a2,2,0,1,1,2-2A2,2,0,0,1,44,63.14Z"></path></g><g id="SvgjsG2802" featurekey="nameFeature-0" transform="matrix(2.5025025598375756,0,0,2.5025025598375756,-9.409413180982188,46.866871453672715)" fill="#111111"><path d="M18.76 29.560000000000002 c-0.56 1.16 -1.36 2.04 -2.48 2.56 l3.36 7.4 c0.12 0.24 -0.04 0.48 -0.28 0.48 l-4.92 0 c-0.16 0 -0.24 -0.08 -0.28 -0.2 l-3.12 -6.8 l-2.04 0 l0 6.64 c0 0.2 -0.16 0.36 -0.36 0.36 l-4.6 0 c-0.16 0 -0.28 -0.16 -0.28 -0.36 l0 -25.68 c0 -0.2 0.12 -0.36 0.28 -0.36 l8.32 0 c4.44 0 7.12 2.52 7.12 7.2 l0 5.04 c0 1.4 -0.24 2.72 -0.72 3.72 z M14.24 24.6 l0 -2.6 c0 -2.8 -1.04 -3.08 -4.08 -3.08 l-1.16 0 l0 8.84 l1.16 0 c2.52 0 4 -0.04 4.08 -3.16 z M6.68 37.56 l0 -6.84 l5.76 0 l3.36 6.92 c0.08 0.2 0.56 0.12 0.44 -0.24 l-3.36 -6.8 c3.12 -0.44 4.2 -2.08 4.2 -5.04 l0 -5 c0 -4.4 -4 -4.76 -5.24 -4.76 l-5.4 0 c-0.08 0 -0.24 0.12 -0.24 0.24 l0 21.52 c0 0.28 0.48 0.28 0.48 0 z M16.6 20.56 l0 5 c0 4.08 -2.6 4.64 -5.12 4.64 l-4.8 0 l0 -13.88 l5.16 0 c4.32 0 4.76 2.92 4.76 4.24 z M26.880000000000003 40 c-0.2 0 -0.32 -0.16 -0.32 -0.36 l0 -25.68 c0 -0.2 0.12 -0.36 0.32 -0.36 l13.6 0 c0.2 0 0.36 0.16 0.36 0.36 l0 4.28 c0 0.2 -0.16 0.36 -0.36 0.36 l-8.64 0 l0 5.44 l6.72 0 c0.2 0 0.32 0.16 0.32 0.36 l0 4.36 c0 0.2 -0.12 0.36 -0.32 0.36 l-6.72 0 l0 5.88 l8.64 0 c0.2 0 0.36 0.16 0.36 0.36 l0 4.28 c0 0.2 -0.16 0.36 -0.36 0.36 l-13.6 0 z M28.880000000000003 16.12 l0 21.28 c0 0.24 0.16 0.32 0.32 0.32 l9.2 0 c0.36 0 0.28 -0.48 0 -0.48 l-9 0 l0 -10.44 l7.36 0 c0.24 0 0.24 -0.56 0 -0.56 l-7.36 0 l0 -9.92 l9 0 c0.28 0 0.36 -0.52 0 -0.52 l-9.2 0 c-0.16 0 -0.32 0.12 -0.32 0.32 z M56.6 23.8 c3.04 1.44 7 3.72 7 7.84 c0 1.2 -0.2 3.52 -1.52 5.48 c-1.48 2.2 -3.8 3.28 -7 3.28 c-3.4 0 -7.36 -1.64 -8.6 -5.36 c-0.04 -0.12 0 -0.24 0.12 -0.32 l3.68 -3.16 c0.16 -0.12 0.4 -0.12 0.52 0.08 c0.08 0.2 0.24 0.52 0.44 0.92 c0.6 1.24 2.04 2.48 3.64 2.48 c1.24 0 2.92 -0.68 2.92 -2.6 c0 -1.84 -2.52 -2.88 -4.08 -3.48 c-1.8 -0.72 -3.64 -1.64 -5.2 -3 c-1.64 -1.52 -2.44 -3.2 -2.44 -5.2 c0 -5 4.6 -7.52 8.96 -7.52 c3.44 0 6 1.8 7.68 5.36 c0.08 0.16 0 0.36 -0.12 0.44 l-3.56 2.48 c-0.16 0.08 -0.24 0.08 -0.4 -0.12 c-1.36 -1.96 -2.56 -2.88 -4.16 -2.88 c-0.84 0 -2.8 0.32 -2.8 1.8 c0 1.8 3.32 2.72 4.92 3.48 z M49.32000000000001 34.84 c1 2 3.76 3.16 6 3.16 c2.92 0 5.28 -2 5.6 -5.04 c0.4 -3.72 -2.52 -5.32 -5.4 -6.76 l-1.28 -0.56 c-2.96 -1.32 -5.12 -2.32 -5.12 -5.08 c0 -3.04 2.8 -4.44 5.56 -4.44 c2.52 0 3.84 1.48 4.52 2.4 c0.24 0.32 0.64 0.04 0.4 -0.28 c-0.68 -0.84 -2.12 -2.6 -4.92 -2.6 c-3.16 0 -6.04 1.56 -6.04 4.92 c0 3 2.4 4.16 5.44 5.56 l1.24 0.6 c3.96 1.88 5.4 3.64 5.08 6.2 c-0.6 4.08 -3.72 4.6 -5.08 4.6 c-3 0 -5 -1.8 -5.6 -2.92 c-0.2 -0.2 -0.48 0 -0.4 0.24 z M69.72 18.6 c-0.2 0 -0.32 -0.16 -0.32 -0.36 l0 -4.28 c0 -0.2 0.12 -0.36 0.32 -0.36 l13.6 0 c0.2 0 0.36 0.16 0.36 0.36 l0 4.64 l-8.44 21.2 c-0.04 0.12 -0.2 0.2 -0.32 0.2 l-5.08 0 c-0.24 0 -0.4 -0.24 -0.32 -0.44 l8.36 -20.96 l-8.16 0 z M73.24000000000001 38 l8.56 -20.84 c0.28 -0.76 -0.16 -1.36 -0.96 -1.36 l-8.72 0 c-0.24 0 -0.28 0.52 0 0.52 l8.72 0 c0.4 0 0.6 0.32 0.48 0.68 l-8.48 20.8 c-0.12 0.32 0.28 0.44 0.4 0.2 z"></path></g></svg>